<svg xmlns="http://www.w3.org/2000/svg" width="18" height="18" viewBox="0 0 18 18">
  <metadata><?xpacket begin="﻿" id="W5M0MpCehiHzreSzNTczkc9d"?>
<x:xmpmeta xmlns:x="adobe:ns:meta/" x:xmptk="Adobe XMP Core 5.6-c142 79.160924, 2017/07/13-01:06:39        ">
   <rdf:RDF xmlns:rdf="http://www.w3.org/1999/02/22-rdf-syntax-ns#">
      <rdf:Description rdf:about=""/>
   </rdf:RDF>
</x:xmpmeta>
                                                                                                    
                                                                                                    
                                                                                                    
                                                                                                    
                                                                                                    
                                                                                                    
                                                                                                    
                                                                                                    
                                                                                                    
                                                                                                    
                                                                                                    
                                                                                                    
                                                                                                    
                                                                                                    
                                                                                                    
                                                                                                    
                                                                                                    
                                                                                                    
                                                                                                    
                                                                                                    
                           
<?xpacket end="w"?></metadata>
<defs>
    <style>
      .cls-1 {
        fill: #f4511e;
        fill-rule: evenodd;
      }
    </style>
  </defs>
  <path id="Angry" class="cls-1" d="M383,1330a9,9,0,1,0-9-9A9,9,0,0,0,383,1330Zm0-16.31a7.31,7.31,0,1,1-7.313,7.31A7.309,7.309,0,0,1,383,1313.69Zm3.377,12.03a3.94,3.94,0,0,0-6.754,0l-1.447-.87a5.627,5.627,0,0,1,9.648,0Zm1.105-8.79a0.562,0.562,0,0,1-.408.68,5.383,5.383,0,0,0-1,.37,1.125,1.125,0,1,1-1.949.77c0-.02,0-0.04,0-0.06a2.231,2.231,0,0,1,1.433-1.71,6.483,6.483,0,0,1,1.241-.46A0.551,0.551,0,0,1,387.482,1316.93Zm-8.964,0a0.551,0.551,0,0,1,.681-0.41,6.49,6.49,0,0,1,1.239.46,2.237,2.237,0,0,1,1.435,1.71c0,0.02,0,.04,0,0.06a1.125,1.125,0,1,1-1.949-.77,5.365,5.365,0,0,0-1-.37A0.562,0.562,0,0,1,378.518,1316.93Z" transform="translate(-374 -1312)"/>
</svg>
