<svg xmlns="http://www.w3.org/2000/svg" width="27" height="30" viewBox="0 0 27 30">
  <metadata><?xpacket begin="﻿" id="W5M0MpCehiHzreSzNTczkc9d"?>
<x:xmpmeta xmlns:x="adobe:ns:meta/" x:xmptk="Adobe XMP Core 5.6-c142 79.160924, 2017/07/13-01:06:39        ">
   <rdf:RDF xmlns:rdf="http://www.w3.org/1999/02/22-rdf-syntax-ns#">
      <rdf:Description rdf:about=""/>
   </rdf:RDF>
</x:xmpmeta>
                                                                                                    
                                                                                                    
                                                                                                    
                                                                                                    
                                                                                                    
                                                                                                    
                                                                                                    
                                                                                                    
                                                                                                    
                                                                                                    
                                                                                                    
                                                                                                    
                                                                                                    
                                                                                                    
                                                                                                    
                                                                                                    
                                                                                                    
                                                                                                    
                                                                                                    
                                                                                                    
                           
<?xpacket end="w"?></metadata>
<defs>
    <style>
      .cls-1 {
        fill: #fff;
        fill-rule: evenodd;
      }
    </style>
  </defs>
  <path id="Cube_Variant_With_Shadow" data-name="Cube Variant With Shadow" class="cls-1" d="M1076,149.243l0.07,15.53a0.569,0.569,0,0,0,.3.477l12.77,6.494a0.622,0.622,0,0,0,.27.065h0a0.6,0.6,0,0,0,.13.112,0.588,0.588,0,0,0,.29.077,0.61,0.61,0,0,0,.27-0.066l12.61-6.641a0.541,0.541,0,0,0,.29-0.479V148.629c0-.016-0.01-0.03-0.01-0.045a0.28,0.28,0,0,0-.02-0.089,0.13,0.13,0,0,0-.02-0.057,0.239,0.239,0,0,0-.04-0.073,0.158,0.158,0,0,0-.04-0.052,0.225,0.225,0,0,0-.05-0.059l-0.06-.04c-0.01-.008-0.02-0.019-0.03-0.027s-0.03-.01-0.04-0.016-0.02-.013-0.03-0.018l-13-6.113a0.576,0.576,0,0,0-.47.016l-12.84,6.5a0.54,0.54,0,0,0-.31.484v0.009A0.62,0.62,0,0,0,1076,149.243Zm25.15-.528-11.33,6.147-11.99-5.812,11.64-5.908Zm-10.76,21.825V155.8l11.49-6.235v14.92Z" transform="translate(-1076 -142)"/>
</svg>
