<svg xmlns="http://www.w3.org/2000/svg" width="26.343" height="25.375" viewBox="0 0 26.343 25.375">
  <metadata><?xpacket begin="﻿" id="W5M0MpCehiHzreSzNTczkc9d"?>
<x:xmpmeta xmlns:x="adobe:ns:meta/" x:xmptk="Adobe XMP Core 5.6-c142 79.160924, 2017/07/13-01:06:39        ">
   <rdf:RDF xmlns:rdf="http://www.w3.org/1999/02/22-rdf-syntax-ns#">
      <rdf:Description rdf:about=""/>
   </rdf:RDF>
</x:xmpmeta>
                                                                                                    
                                                                                                    
                                                                                                    
                                                                                                    
                                                                                                    
                                                                                                    
                                                                                                    
                                                                                                    
                                                                                                    
                                                                                                    
                                                                                                    
                                                                                                    
                                                                                                    
                                                                                                    
                                                                                                    
                                                                                                    
                                                                                                    
                                                                                                    
                                                                                                    
                                                                                                    
                           
<?xpacket end="w"?></metadata>
<defs>
    <style>
      .cls-1 {
        fill: #fff;
        fill-rule: evenodd;
      }
    </style>
  </defs>
  <path id="Database" class="cls-1" d="M852,144.809c-7.261,0-13.148,1.706-13.148,3.812v3.128c0,2.106,5.887,3.811,13.148,3.811s13.148-1.705,13.148-3.811v-3.128C865.148,146.515,859.261,144.809,852,144.809Zm0,12.574c-6.933,0-12.648-1.556-13.148-3.53-0.024.095,0,5.166,0,5.166,0,2.106,5.887,3.812,13.148,3.812s13.148-1.706,13.148-3.812c0,0,.014-5.072-0.009-5.166C864.638,155.827,858.932,157.383,852,157.383Zm13.135,3.83c-0.5,1.972-6.2,3.529-13.135,3.529s-12.65-1.557-13.149-3.529v5.165c0,2.106,5.887,3.812,13.148,3.812s13.148-1.706,13.148-3.812Z" transform="translate(-838.813 -144.813)"/>
</svg>
