<svg xmlns="http://www.w3.org/2000/svg" width="26" height="30" viewBox="0 0 26 30">
  <metadata><?xpacket begin="﻿" id="W5M0MpCehiHzreSzNTczkc9d"?>
<x:xmpmeta xmlns:x="adobe:ns:meta/" x:xmptk="Adobe XMP Core 5.6-c142 79.160924, 2017/07/13-01:06:39        ">
   <rdf:RDF xmlns:rdf="http://www.w3.org/1999/02/22-rdf-syntax-ns#">
      <rdf:Description rdf:about=""/>
   </rdf:RDF>
</x:xmpmeta>
                                                                                                    
                                                                                                    
                                                                                                    
                                                                                                    
                                                                                                    
                                                                                                    
                                                                                                    
                                                                                                    
                                                                                                    
                                                                                                    
                                                                                                    
                                                                                                    
                                                                                                    
                                                                                                    
                                                                                                    
                                                                                                    
                                                                                                    
                                                                                                    
                                                                                                    
                                                                                                    
                           
<?xpacket end="w"?></metadata>
<defs>
    <style>
      .cls-1 {
        fill: #fff;
        fill-rule: evenodd;
      }
    </style>
  </defs>
  <path id="Document_Page_With_Text_Lines" data-name="Document Page With Text Lines" class="cls-1" d="M604.857,172h22.286A1.867,1.867,0,0,0,629,170.125v-26.25A1.867,1.867,0,0,0,627.143,142H604.857A1.867,1.867,0,0,0,603,143.875v26.25A1.867,1.867,0,0,0,604.857,172Zm0-28.125h22.286v26.25H604.857v-26.25Zm17.643,3.75h-7.429a0.938,0.938,0,0,0,0,1.875H622.5A0.938,0.938,0,0,0,622.5,147.625Zm0,5.625h-13a0.938,0.938,0,0,0,0,1.875h13A0.938,0.938,0,0,0,622.5,153.25Zm0,5.625h-13a0.938,0.938,0,0,0,0,1.875h13A0.938,0.938,0,0,0,622.5,158.875Zm0,5.625h-13a0.938,0.938,0,0,0,0,1.875h13A0.938,0.938,0,0,0,622.5,164.5Z" transform="translate(-603 -142)"/>
</svg>
