<svg xmlns="http://www.w3.org/2000/svg" width="18" height="18" viewBox="0 0 18 18">
  <metadata><?xpacket begin="﻿" id="W5M0MpCehiHzreSzNTczkc9d"?>
<x:xmpmeta xmlns:x="adobe:ns:meta/" x:xmptk="Adobe XMP Core 5.6-c142 79.160924, 2017/07/13-01:06:39        ">
   <rdf:RDF xmlns:rdf="http://www.w3.org/1999/02/22-rdf-syntax-ns#">
      <rdf:Description rdf:about=""/>
   </rdf:RDF>
</x:xmpmeta>
                                                                                                    
                                                                                                    
                                                                                                    
                                                                                                    
                                                                                                    
                                                                                                    
                                                                                                    
                                                                                                    
                                                                                                    
                                                                                                    
                                                                                                    
                                                                                                    
                                                                                                    
                                                                                                    
                                                                                                    
                                                                                                    
                                                                                                    
                                                                                                    
                                                                                                    
                                                                                                    
                           
<?xpacket end="w"?></metadata>
<defs>
    <style>
      .cls-1 {
        fill: #5ec7bd;
        fill-rule: evenodd;
      }
    </style>
  </defs>
  <path id="Happy" class="cls-1" d="M383,1171a9,9,0,1,0-9-9A9,9,0,0,0,383,1171Zm0-16.31a7.31,7.31,0,1,1-7.313,7.31A7.309,7.309,0,0,1,383,1154.69Zm0,8.84a11.28,11.28,0,0,0,5.625-1.5,5.625,5.625,0,0,1-11.25,0A11.278,11.278,0,0,0,383,1163.53Zm-4.5-4.34a1.219,1.219,0,1,0,1.125-1.69A1.488,1.488,0,0,0,378.5,1159.19Zm6.75,0a1.219,1.219,0,1,0,1.125-1.69A1.488,1.488,0,0,0,385.25,1159.19Z" transform="translate(-374 -1153)"/>
</svg>
