<svg xmlns="http://www.w3.org/2000/svg" width="18" height="18" viewBox="0 0 18 18">
  <metadata><?xpacket begin="﻿" id="W5M0MpCehiHzreSzNTczkc9d"?>
<x:xmpmeta xmlns:x="adobe:ns:meta/" x:xmptk="Adobe XMP Core 5.6-c142 79.160924, 2017/07/13-01:06:39        ">
   <rdf:RDF xmlns:rdf="http://www.w3.org/1999/02/22-rdf-syntax-ns#">
      <rdf:Description rdf:about=""/>
   </rdf:RDF>
</x:xmpmeta>
                                                                                                    
                                                                                                    
                                                                                                    
                                                                                                    
                                                                                                    
                                                                                                    
                                                                                                    
                                                                                                    
                                                                                                    
                                                                                                    
                                                                                                    
                                                                                                    
                                                                                                    
                                                                                                    
                                                                                                    
                                                                                                    
                                                                                                    
                                                                                                    
                                                                                                    
                                                                                                    
                           
<?xpacket end="w"?></metadata>
<defs>
    <style>
      .cls-1 {
        fill: #f1ba05;
        fill-rule: evenodd;
      }
    </style>
  </defs>
  <path id="Sad" class="cls-1" d="M383,1277a9,9,0,1,0-9-9A9,9,0,0,0,383,1277Zm0-16.31a7.31,7.31,0,1,1-7.313,7.31A7.309,7.309,0,0,1,383,1260.69Zm-4.5,3.93a1.125,1.125,0,1,1,1.125,1.13A1.122,1.122,0,0,1,378.5,1264.62Zm6.75,0a1.125,1.125,0,1,1,1.125,1.13A1.122,1.122,0,0,1,385.25,1264.62Zm-5.627,8.1-1.447-.87a5.627,5.627,0,0,1,9.648,0l-1.447.87A3.94,3.94,0,0,0,379.623,1272.72Z" transform="translate(-374 -1259)"/>
</svg>
