<svg xmlns="http://www.w3.org/2000/svg" width="30" height="34" viewBox="0 0 30 34">
  <metadata><?xpacket begin="﻿" id="W5M0MpCehiHzreSzNTczkc9d"?>
<x:xmpmeta xmlns:x="adobe:ns:meta/" x:xmptk="Adobe XMP Core 5.6-c142 79.160924, 2017/07/13-01:06:39        ">
   <rdf:RDF xmlns:rdf="http://www.w3.org/1999/02/22-rdf-syntax-ns#">
      <rdf:Description rdf:about=""/>
   </rdf:RDF>
</x:xmpmeta>
                                                                                                    
                                                                                                    
                                                                                                    
                                                                                                    
                                                                                                    
                                                                                                    
                                                                                                    
                                                                                                    
                                                                                                    
                                                                                                    
                                                                                                    
                                                                                                    
                                                                                                    
                                                                                                    
                                                                                                    
                                                                                                    
                                                                                                    
                                                                                                    
                                                                                                    
                                                                                                    
                           
<?xpacket end="w"?></metadata>
<defs>
    <style>
      .cls-1 {
        fill: #fff;
        fill-rule: evenodd;
      }
    </style>
  </defs>
  <path id="Banknote" class="cls-1" d="M392.977,146.523l-12.692-7.26a2.091,2.091,0,0,0-2.038-.019,2.049,2.049,0,0,0-1.07,1.719,9.464,9.464,0,0,1-1.35,4.508,28.224,28.224,0,0,1-4.641,5.439,31.571,31.571,0,0,0-5.3,6.283,13.483,13.483,0,0,0-1.9,6.406,2.055,2.055,0,0,0,1.034,1.858l12.692,7.26a2.09,2.09,0,0,0,2.039.018,2.067,2.067,0,0,0,.793-0.77,2.032,2.032,0,0,0,.276-0.949,9.464,9.464,0,0,1,1.352-4.509,28.082,28.082,0,0,1,4.642-5.436,31.659,31.659,0,0,0,5.293-6.285,13.463,13.463,0,0,0,1.9-6.406A2.056,2.056,0,0,0,392.977,146.523Zm-14.226,24.414c-4.2-2.405-8.489-4.857-12.692-7.26,0.377-9.881,12.815-12.755,13.189-22.635,4.2,2.4,8.49,4.855,12.694,7.26C391.563,158.181,379.126,161.057,378.751,170.937Zm3.519-16.985a2.783,2.783,0,0,0-1.133-.285,2.971,2.971,0,0,0-1.017.159,3.685,3.685,0,0,0-.94.492c-0.3.22-.6,0.45-0.9,0.7-0.7-.469-1.4-0.931-2.093-1.35a1.17,1.17,0,0,1,.613-0.522,2.348,2.348,0,0,1,.67-0.107c0.226,0,.431-0.011.618-0.023a0.561,0.561,0,0,0,.442-0.244,0.68,0.68,0,0,0,.107-0.541,0.824,0.824,0,0,0-.384-0.511,1.352,1.352,0,0,0-.89-0.234,2.489,2.489,0,0,0-.925.268,3.22,3.22,0,0,0-.806.6,3.64,3.64,0,0,0-.549.685l-0.244-.13a0.389,0.389,0,0,0-.3-0.028,0.36,0.36,0,0,0-.238.205,0.391,0.391,0,0,0,.179.523l0.24,0.112a4.7,4.7,0,0,0-.363,1.171,3.442,3.442,0,0,0-.019,1.138,2.149,2.149,0,0,0,.364.931,1.9,1.9,0,0,0,.807.628,2.406,2.406,0,0,0,1.81.073,5.184,5.184,0,0,0,1.907-1.176c0.774,0.52,1.548,1.034,2.309,1.5a1.619,1.619,0,0,1-.564.544,1.08,1.08,0,0,1-.524.129,1.714,1.714,0,0,1-.49-0.092,3.375,3.375,0,0,0-.458-0.128,0.985,0.985,0,0,0-.426,0,0.711,0.711,0,0,0-.387.317,0.655,0.655,0,0,0-.114.557,0.9,0.9,0,0,0,.406.494,2.141,2.141,0,0,0,.788.3,2.589,2.589,0,0,0,1.97-.454,3.131,3.131,0,0,0,.9-1.029c0.219,0.122.439,0.237,0.656,0.345a0.4,0.4,0,0,0,.529-0.2,0.4,0.4,0,0,0,.016-0.315,0.356,0.356,0,0,0-.19-0.209c-0.215-.093-0.431-0.193-0.648-0.3a5.525,5.525,0,0,0,.413-1.318,3.546,3.546,0,0,0,.024-1.175,2.011,2.011,0,0,0-.372-0.9A1.975,1.975,0,0,0,382.27,153.952Zm-5.414,2.158a1.015,1.015,0,0,1-.825-0.09,0.754,0.754,0,0,1-.282-0.268,1.029,1.029,0,0,1-.151-0.4,1.374,1.374,0,0,1,.012-0.5,1.954,1.954,0,0,1,.2-0.552c0.643,0.366,1.3.779,1.958,1.212A2.472,2.472,0,0,1,376.856,156.11Zm5.257,0.732a2.093,2.093,0,0,1-.195.523c-0.714-.412-1.441-0.88-2.172-1.364,0.127-.1.258-0.208,0.4-0.319a2.373,2.373,0,0,1,.449-0.269,1.347,1.347,0,0,1,.5-0.11,1.05,1.05,0,0,1,.531.144,0.944,0.944,0,0,1,.385.37,1.253,1.253,0,0,1,.146.481A1.66,1.66,0,0,1,382.113,156.842Zm-2.741,5.617h0a18.607,18.607,0,0,0-1.386,2.018,14.949,14.949,0,0,0-1.006,2.074l-0.434,1.108,0,0a0.514,0.514,0,0,0,.235.6,0.525,0.525,0,0,0,.71-0.189,0.447,0.447,0,0,0,.047-0.119l0.405-1.038a13.943,13.943,0,0,1,.939-1.928,16.153,16.153,0,0,1,1.32-1.918l0,0a0.343,0.343,0,0,0,.04-0.054,0.511,0.511,0,0,0-.19-0.7A0.522,0.522,0,0,0,379.372,162.459Zm-0.214-15.318a17.13,17.13,0,0,1-1.293,1.877,0.512,0.512,0,0,0,.1.825,0.524,0.524,0,0,0,.7-0.171h0a18.735,18.735,0,0,0,1.384-2.018,14.925,14.925,0,0,0,1.007-2.071l0.434-1.112,0,0a0.514,0.514,0,0,0-.209-0.671,0.523,0.523,0,0,0-.713.189,0.56,0.56,0,0,0-.055.145l-0.421,1.079A13.955,13.955,0,0,1,379.158,147.141Z" transform="translate(-364 -139)"/>
</svg>
