<svg xmlns="http://www.w3.org/2000/svg" width="19" height="18" viewBox="0 0 19 18">
  <metadata><?xpacket begin="﻿" id="W5M0MpCehiHzreSzNTczkc9d"?>
<x:xmpmeta xmlns:x="adobe:ns:meta/" x:xmptk="Adobe XMP Core 5.6-c142 79.160924, 2017/07/13-01:06:39        ">
   <rdf:RDF xmlns:rdf="http://www.w3.org/1999/02/22-rdf-syntax-ns#">
      <rdf:Description rdf:about=""/>
   </rdf:RDF>
</x:xmpmeta>
                                                                                                    
                                                                                                    
                                                                                                    
                                                                                                    
                                                                                                    
                                                                                                    
                                                                                                    
                                                                                                    
                                                                                                    
                                                                                                    
                                                                                                    
                                                                                                    
                                                                                                    
                                                                                                    
                                                                                                    
                                                                                                    
                                                                                                    
                                                                                                    
                                                                                                    
                                                                                                    
                           
<?xpacket end="w"?></metadata>
<defs>
    <style>
      .cls-1 {
        fill: #b0bec5;
        fill-rule: evenodd;
      }
    </style>
  </defs>
  <path id="log_out" data-name="log out" class="cls-1" d="M1263.99,46.815h-9.76V33.185h9.76a0.384,0.384,0,0,0,.39-0.384V31.384a0.384,0.384,0,0,0-.39-0.384h-11.6a0.391,0.391,0,0,0-.39.384V48.616a0.391,0.391,0,0,0,.39.384h11.6a0.391,0.391,0,0,0,.39-0.384V47.2A0.384,0.384,0,0,0,1263.99,46.815Zm6.89-7.087-5.27-5.176a0.416,0.416,0,0,0-.56,0l-1.25,1.228a0.385,0.385,0,0,0,0,.544l2.39,2.338h-10.32a0.384,0.384,0,0,0-.39.384v1.906a0.384,0.384,0,0,0,.39.384h10.32l-2.39,2.338a0.385,0.385,0,0,0,0,.544l1.25,1.228a0.423,0.423,0,0,0,.28.113,0.387,0.387,0,0,0,.28-0.113l5.28-5.176A0.392,0.392,0,0,0,1271,40,0.361,0.361,0,0,0,1270.88,39.728Z" transform="translate(-1252 -31)"/>
</svg>
