<svg xmlns="http://www.w3.org/2000/svg" width="18" height="18" viewBox="0 0 18 18">
  <metadata><?xpacket begin="﻿" id="W5M0MpCehiHzreSzNTczkc9d"?>
<x:xmpmeta xmlns:x="adobe:ns:meta/" x:xmptk="Adobe XMP Core 5.6-c142 79.160924, 2017/07/13-01:06:39        ">
   <rdf:RDF xmlns:rdf="http://www.w3.org/1999/02/22-rdf-syntax-ns#">
      <rdf:Description rdf:about=""/>
   </rdf:RDF>
</x:xmpmeta>
                                                                                                    
                                                                                                    
                                                                                                    
                                                                                                    
                                                                                                    
                                                                                                    
                                                                                                    
                                                                                                    
                                                                                                    
                                                                                                    
                                                                                                    
                                                                                                    
                                                                                                    
                                                                                                    
                                                                                                    
                                                                                                    
                                                                                                    
                                                                                                    
                                                                                                    
                                                                                                    
                           
<?xpacket end="w"?></metadata>
<defs>
    <style>
      .cls-1 {
        fill: #b0bec5;
        fill-rule: evenodd;
      }
    </style>
  </defs>
  <path id="settings" class="cls-1" d="M1222,40.545V39.454a0.612,0.612,0,0,0-.51-0.6l-1.95-.325-0.03-.125a6.843,6.843,0,0,0-.56-1.5l-0.06-.114,1.25-1.546a0.6,0.6,0,0,0-.02-0.788l-0.73-.815a0.622,0.622,0,0,0-.78-0.112l-1.66,1.049-0.11-.074a6.664,6.664,0,0,0-2.23-1.008l-0.13-.031-0.32-1.959a0.616,0.616,0,0,0-.61-0.509h-1.09a0.606,0.606,0,0,0-.6.508l-0.32,1.96-0.13.031a6.734,6.734,0,0,0-1.88.781l-0.11.067-1.58-1.133a0.628,0.628,0,0,0-.79.065l-0.77.772a0.613,0.613,0,0,0-.07.784l1.14,1.59-0.07.11a6.612,6.612,0,0,0-.77,1.865l-0.03.125-1.97.329a0.6,0.6,0,0,0-.51.6v1.091a0.6,0.6,0,0,0,.51.6l1.97,0.329,0.03,0.125a7.008,7.008,0,0,0,.59,1.558l0.06,0.114-1.24,1.539a0.6,0.6,0,0,0,.02.787l0.72,0.816a0.624,0.624,0,0,0,.78.111l1.69-1.061,0.11,0.072a6.593,6.593,0,0,0,2.17.964l0.13,0.031,0.32,1.959a0.606,0.606,0,0,0,.6.509h1.09a0.617,0.617,0,0,0,.61-0.509l0.32-1.959,0.13-.031a6.642,6.642,0,0,0,1.85-.768l0.11-.066,1.65,1.177a0.627,0.627,0,0,0,.79-0.065l0.77-.772a0.6,0.6,0,0,0,.06-0.783l-1.17-1.647,0.07-.11a6.717,6.717,0,0,0,.77-1.87l0.03-.125,1.95-.325A0.6,0.6,0,0,0,1222,40.545Zm-8.97,3.1A3.644,3.644,0,1,1,1216.67,40,3.653,3.653,0,0,1,1213.03,43.644Z" transform="translate(-1204 -31)"/>
</svg>
