<svg xmlns="http://www.w3.org/2000/svg" width="18" height="18" viewBox="0 0 18 18">
  <metadata><?xpacket begin="﻿" id="W5M0MpCehiHzreSzNTczkc9d"?>
<x:xmpmeta xmlns:x="adobe:ns:meta/" x:xmptk="Adobe XMP Core 5.6-c142 79.160924, 2017/07/13-01:06:39        ">
   <rdf:RDF xmlns:rdf="http://www.w3.org/1999/02/22-rdf-syntax-ns#">
      <rdf:Description rdf:about=""/>
   </rdf:RDF>
</x:xmpmeta>
                                                                                                    
                                                                                                    
                                                                                                    
                                                                                                    
                                                                                                    
                                                                                                    
                                                                                                    
                                                                                                    
                                                                                                    
                                                                                                    
                                                                                                    
                                                                                                    
                                                                                                    
                                                                                                    
                                                                                                    
                                                                                                    
                                                                                                    
                                                                                                    
                                                                                                    
                                                                                                    
                           
<?xpacket end="w"?></metadata>
<defs>
    <style>
      .cls-1 {
        fill: #38a4dd;
        fill-rule: evenodd;
      }
    </style>
  </defs>
  <path id="Smiley" class="cls-1" d="M383,1224a9,9,0,1,0-9-9A9,9,0,0,0,383,1224Zm0-16.31a7.31,7.31,0,1,1-7.313,7.31A7.309,7.309,0,0,1,383,1207.69Zm-4.5,3.93a1.125,1.125,0,1,1,1.125,1.13A1.122,1.122,0,0,1,378.5,1211.62Zm6.75,0a1.125,1.125,0,1,1,1.125,1.13A1.122,1.122,0,0,1,385.25,1211.62Zm1.127,5.41,1.447,0.86a5.627,5.627,0,0,1-9.648,0l1.447-.86A3.94,3.94,0,0,0,386.377,1217.03Z" transform="translate(-374 -1206)"/>
</svg>
